<?xml version="1.0" encoding="UTF-8"?>
<svg id="Layer_2" data-name="Layer 2" xmlns="http://www.w3.org/2000/svg" viewBox="0 0 68.31 53.9">
  <defs>
    <style>
      .cls-1 {
        fill: #231f20;
      }
    </style>
  </defs>
  <g id="Layer_1-2" data-name="Layer 1">
    <polygon class="cls-1" points="64.59 17.88 64.59 25.55 51.45 12.47 36.83 12.47 32.9 8.56 30.27 11.17 35.29 16.17 49.91 16.17 63.82 30.02 54.04 39.75 49.54 39.75 45.41 43.87 45.41 50.2 43.66 50.2 33.28 39.87 44.04 29.16 44.04 21.88 40.32 21.88 40.32 27.63 29.88 38.02 22.99 38.02 18.06 33.12 22.29 28.91 22.29 22.58 16.26 16.57 13.62 19.19 18.57 24.11 18.57 27.38 14.66 31.27 11.34 31.27 3.72 23.69 3.72 15.87 15.93 3.72 52.3 3.7 52.3 0 14.38 .02 0 14.34 0 25.22 9.8 34.97 14.66 34.97 21.44 41.72 29.88 41.72 42.12 53.9 49.13 53.9 49.13 45.41 51.09 43.46 55.58 43.46 68.31 30.79 68.31 17.88 64.59 17.88"/>
  </g>
</svg>