<?xml version="1.0" encoding="UTF-8"?>
<svg id="Layer_2" data-name="Layer 2" xmlns="http://www.w3.org/2000/svg" viewBox="0 0 76.18 61.77">
  <defs>
    <style>
      .cls-1 {
        fill: #231f20;
      }
    </style>
  </defs>
  <g id="Layer_1-2" data-name="Layer 1">
    <g>
      <polygon class="cls-1" points="64.59 25.75 64.59 33.42 51.45 20.34 36.83 20.34 32.9 16.43 30.27 19.05 35.29 24.04 49.91 24.04 63.82 37.89 54.04 47.63 49.54 47.63 45.41 51.74 45.41 58.07 43.66 58.07 33.28 47.74 44.04 37.04 44.04 29.75 40.32 29.75 40.32 35.5 29.88 45.89 22.99 45.89 18.06 40.99 22.29 36.78 22.29 30.45 16.26 24.44 13.62 27.06 18.57 31.98 18.57 35.25 14.66 39.14 11.34 39.14 3.72 31.56 3.72 23.74 15.93 11.6 52.3 11.57 52.3 7.87 14.38 7.9 0 22.21 0 33.09 9.8 42.84 14.66 42.84 21.44 49.59 29.88 49.59 42.12 61.77 49.13 61.77 49.13 53.28 51.09 51.33 55.58 51.33 68.31 38.66 68.31 25.75 64.59 25.75"/>
      <polygon class="cls-1" points="76.18 13.02 74.25 16.16 69.89 13.77 68.31 14.62 68.31 19.48 64.59 19.48 64.59 14.62 62.93 13.77 58.58 16.16 56.7 13.02 61.07 10.63 61.07 8.85 56.7 6.45 58.58 3.25 62.94 5.71 64.59 4.77 64.59 0 68.31 0 68.31 4.77 69.88 5.71 74.25 3.25 76.18 6.45 71.83 8.85 71.83 10.63 76.18 13.02"/>
    </g>
  </g>
</svg>